<svg xmlns="http://www.w3.org/2000/svg" width="106" height="106" viewBox="1.37 -33.3 66.55 54">
  <path d="M6.01-8.15L6.01-8.15 6.2-4.59Q6.2-4.3 6.18-3.52 6.15-2.73 5.59-2.12 5.03-1.51 4.22-1.51 3.42-1.51 2.98-1.56L2.98-1.56Q1.37-1.56 1.37-2.98L1.37-2.98Q1.37-4.15 2.44-12.43 3.52-20.7 3.81-23.1 4.1-25.49 4.32-27.12 4.54-28.76 4.64-29.54 4.74-30.32 4.93-31.1 5.13-31.88 5.52-32.37L5.52-32.37Q6.25-33.3 8.35-33.3L8.35-33.3Q11.87-31.54 15.58-23.34L15.58-23.34Q18.21-17.48 19.09-15.92 19.97-14.36 20.8-13.77L20.8-13.77 30.57-30.76Q31.59-31.49 32.13-31.49L32.13-31.49Q33.69-31.49 34.52-30.08 35.35-28.66 35.91-26.64 36.47-24.61 36.89-22.17 37.3-19.73 37.62-17.07 37.94-14.4 38.23-11.87L38.23-11.87Q38.92-5.76 39.28-4.2 39.65-2.64 39.65-1.98 39.65-1.32 39.21-0.71 38.77-0.1 37.99-0.1 37.21-0.1 36.43-0.71 35.64-1.32 35.47-2.22 35.3-3.13 35.13-4.59 34.96-6.05 34.72-7.89 34.47-9.72 34.23-11.74 33.98-13.77 33.74-15.63 33.5-17.48 33.3-18.92 33.11-20.36 33.01-21.09L33.01-21.09Q33.01-22.07 32.96-22.9 32.91-23.73 32.57-23.93 32.23-24.12 31.52-23.46 30.81-22.8 29.54-20.8L29.54-20.8Q26.81-16.55 21.63-6.49L21.63-6.49Q20.95-5.27 19.82-5.96L19.82-5.96Q18.51-6.69 17.58-9.72L17.58-9.72 8.59-28.81Q7.42-26.46 6.45-13.28L6.45-13.28Q6.3-11.67 6.25-10.55L6.25-10.55Q6.01-9.33 6.01-8.15ZM67.82-21.19L52.98 18.41Q51.95 20.7 50.53 20.7L50.53 20.7Q49.85 20.7 49.53 20.09 49.22 19.48 49.51 18.65L49.51 18.65Q50.58 14.11 52.61 8.3 54.64 2.49 55.32 0.49L55.32 0.49Q53.61-1.22 49.95-6.35L49.95-6.35Q42.43-16.89 42.43-17.92L42.43-17.92Q42.43-17.97 42.48-18.02L42.48-18.02 44.33-19.87Q48.19-16.31 54.39-7.76L54.39-7.76Q55.95-5.62 56.88-4.15L56.88-4.15Q57.91-6.2 58.49-7.69 59.08-9.18 59.45-10.08 59.81-10.99 60.45-12.5L60.45-12.5Q62.11-16.55 65.04-22.8L65.04-22.8Q65.48-23 65.96-23L65.96-23Q67.19-23 67.72-22.36L67.72-22.36Q67.92-22.12 67.92-21.8 67.92-21.48 67.82-21.19L67.82-21.19Z" fill="#f7f7f7"/>
</svg>
